<?xml version="1.0" encoding="utf-8"?>
<!-- Generator: Adobe Illustrator 22.0.1, SVG Export Plug-In . SVG Version: 6.00 Build 0)  -->
<svg version="1.1" id="Capa_1" xmlns="http://www.w3.org/2000/svg" xmlns:xlink="http://www.w3.org/1999/xlink" x="0px" y="0px"
	 viewBox="0 0 60 60" style="enable-background:new 0 0 60 60;" xml:space="preserve">
<style type="text/css">
	.st0{fill:#FFFFFF;}
</style>
<g>
	<g>
		<path class="st0" d="M10,25.5h13c0.6,0,1-0.4,1-1s-0.4-1-1-1H10c-0.6,0-1,0.4-1,1S9.4,25.5,10,25.5z"/>
		<path class="st0" d="M23,23.5H10c-0.6,0-1,0.4-1,1s0.4,1,1,1h13c0.6,0,1-0.4,1-1S23.6,23.5,23,23.5L23,23.5z"/>
	</g>
	<g>
		<path class="st0" d="M36,29.5H10c-0.6,0-1,0.4-1,1s0.4,1,1,1h26c0.6,0,1-0.4,1-1S36.6,29.5,36,29.5z"/>
		<path class="st0" d="M36,29.5H10c-0.6,0-1,0.4-1,1s0.4,1,1,1h26c0.6,0,1-0.4,1-1S36.6,29.5,36,29.5L36,29.5z"/>
	</g>
	<g>
		<path class="st0" d="M36,35.5H10c-0.6,0-1,0.4-1,1s0.4,1,1,1h26c0.6,0,1-0.4,1-1S36.6,35.5,36,35.5z"/>
		<path class="st0" d="M36,35.5H10c-0.6,0-1,0.4-1,1s0.4,1,1,1h26c0.6,0,1-0.4,1-1S36.6,35.5,36,35.5L36,35.5z"/>
	</g>
	<g>
		<path class="st0" d="M54.1,2.5H19.9c-3.3,0-5.9,2.7-5.9,5.9v5.1H5.9c-3.3,0-5.9,2.7-5.9,5.9v21.1c0,3.3,2.7,5.9,5.9,5.9H12v10
			c0,0.4,0.3,0.8,0.6,0.9c0.1,0,0.2,0.1,0.4,0.1c0.3,0,0.5-0.1,0.7-0.3l9.7-10.7L40,46.3c3.3,0,5.9-2.7,5.9-5.9v-0.1l5.3,5.8
			c0.2,0.2,0.5,0.3,0.7,0.3c0.1,0,0.2,0,0.4-0.1c0.4-0.1,0.6-0.5,0.6-0.9v-10H54c3.3,0,5.9-2.7,5.9-5.9v-21
			C60,5.2,57.3,2.5,54.1,2.5z M44,40.5c0,2.2-1.8,3.9-3.9,3.9L23,44.5c-0.3,0-0.5,0.1-0.7,0.3L14,53.9v-8.4c0-0.6-0.4-1-1-1H5.9
			c-2.2,0-3.9-1.8-3.9-3.9V19.5c0-2.2,1.8-3.9,3.9-3.9H15l0,0l0,0l25.1-0.1c2.2,0,3.9,1.8,3.9,3.9v18.4V40.5z M58,29.6
			c0,2.2-1.8,3.9-3.9,3.9H52c-0.6,0-1,0.4-1,1v8.4l-5-5.5v-18c0-3.3-2.7-5.9-5.9-5.9H16V8.4c0-2.2,1.8-3.9,3.9-3.9L54,4.6l0,0
			c2.2,0,3.9,1.8,3.9,3.9L58,29.6L58,29.6z"/>
		<path class="st0" d="M54.1,2.5H19.9c-3.3,0-5.9,2.7-5.9,5.9v5.1H5.9c-3.3,0-5.9,2.7-5.9,5.9v21.1c0,3.3,2.7,5.9,5.9,5.9H12v10
			c0,0.4,0.3,0.8,0.6,0.9c0.1,0,0.2,0.1,0.4,0.1c0.3,0,0.5-0.1,0.7-0.3l9.7-10.7L40,46.3c3.3,0,5.9-2.7,5.9-5.9v-0.1l5.3,5.8
			c0.2,0.2,0.5,0.3,0.7,0.3c0.1,0,0.2,0,0.4-0.1c0.4-0.1,0.6-0.5,0.6-0.9v-10H54c3.3,0,5.9-2.7,5.9-5.9v-21
			C60,5.2,57.3,2.5,54.1,2.5L54.1,2.5z M16,13.5V8.4c0-2.2,1.8-3.9,3.9-3.9L54,4.6c2.2,0,3.9,1.8,3.9,3.9L58,29.6
			c0,2.2-1.8,3.9-3.9,3.9H52c-0.6,0-1,0.4-1,1v8.4l-5-5.5v-18c0-3.3-2.7-5.9-5.9-5.9H16L16,13.5z M5.9,44.5c-2.2,0-3.9-1.8-3.9-3.9
			V19.5c0-2.2,1.8-3.9,3.9-3.9H15l25.1-0.1c2.2,0,3.9,1.8,3.9,3.9v18.4v2.7c0,2.2-1.8,3.9-3.9,3.9L23,44.5c-0.3,0-0.5,0.1-0.7,0.3
			L14,53.9v-8.4c0-0.6-0.4-1-1-1H5.9L5.9,44.5z"/>
	</g>
</g>
</svg>
