<?xml version="1.0" encoding="utf-8"?>
<!-- Generator: Adobe Illustrator 22.0.1, SVG Export Plug-In . SVG Version: 6.00 Build 0)  -->
<svg version="1.1" id="Capa_1" xmlns="http://www.w3.org/2000/svg" xmlns:xlink="http://www.w3.org/1999/xlink" x="0px" y="0px"
	 viewBox="0 0 512 512" style="enable-background:new 0 0 512 512;" xml:space="preserve">
<style type="text/css">
	.st0{fill:#FFFFFF;stroke:#FFFFFF;stroke-width:20;stroke-miterlimit:10;}
</style>
<g>
	<g>
		<g>
			<path class="st0" d="M512,256C512,114.8,397.2,0,256,0S0,114.8,0,256c0,96,53.1,179.8,131.5,223.6c0.6,0.4,1.2,0.8,1.8,1
				c36.4,20,78.3,31.4,122.7,31.4s86.2-11.4,122.7-31.4c0.7-0.3,1.3-0.6,1.8-1C458.9,435.8,512,352,512,256z M17.1,256
				C17.1,124.3,124.3,17.1,256,17.1S494.9,124.3,494.9,256c0,84.7-44.3,159.2-110.9,201.7v-48.1c0-45.2-24.4-87.6-63.6-110.5
				c-2.8-1.6-6.2-1.5-8.9,0.2c-33.2,21.5-77.7,21.5-111,0c-2.7-1.7-6.2-1.8-8.9-0.2C152.4,322,128,364.4,128,409.6v48.1
				C61.4,415.2,17.1,340.7,17.1,256z M145.1,467.6v-58c0-37.5,19.4-72.7,50.8-93.1c36.5,21.4,83.7,21.4,120.2,0
				c31.5,20.4,50.8,55.6,50.8,93.1v58C333.8,485,296,494.9,256,494.9S178.2,485,145.1,467.6z"/>
			<path class="st0" d="M256,281.6c47.1,0,85.3-38.3,85.3-85.3S303,111,256,111s-85.3,38.3-85.3,85.3S208.9,281.6,256,281.6z
				 M256,128c37.6,0,68.3,30.6,68.3,68.3s-30.6,68.3-68.3,68.3s-68.3-30.6-68.3-68.3S218.4,128,256,128z"/>
		</g>
	</g>
</g>
</svg>
