<svg id="Capa_1" enable-background="new 0 0 512 512" height="512" viewBox="0 0 512 512" width="512" xmlns="http://www.w3.org/2000/svg"><g><path d="m121 395.52v-124.938h300v-153.9c25.336-6.657 44.078-29.763 44.078-57.165 0-32.585-26.502-59.096-59.078-59.096s-59.078 26.511-59.078 59.096c0 27.403 18.742 50.508 44.078 57.165v123.937h-300v154.9c-25.336 6.657-44.078 29.763-44.078 57.165 0 32.585 26.502 59.096 59.078 59.096s59.078-26.511 59.078-59.096c0-27.402-18.743-50.508-44.078-57.164zm255.922-336.003c0-16.064 13.044-29.133 29.078-29.133s29.078 13.07 29.078 29.133-13.044 29.133-29.078 29.133-29.078-13.069-29.078-29.133zm-270.922 422.301c-16.034 0-29.078-13.07-29.078-29.133 0-16.064 13.044-29.132 29.078-29.132s29.078 13.069 29.078 29.132c0 16.064-13.044 29.133-29.078 29.133z"/><path d="m80.348 200.853 33.313-33.219 33.313 33.219 21.197-21.203-33.28-33.186 33.28-33.185-21.197-21.203-33.313 33.219-33.313-33.219-21.197 21.203 33.28 33.185-33.28 33.186z"/><path d="m221.348 108.777 33.313-33.219 33.314 33.219 21.196-21.203-33.28-33.186 33.28-33.185-21.196-21.203-33.314 33.219-33.313-33.219-21.197 21.203 33.28 33.185-33.28 33.186z"/><path d="m287.975 403.222-33.314 33.219-33.313-33.219-21.197 21.203 33.28 33.186-33.28 33.186 21.197 21.203 33.313-33.219 33.314 33.219 21.196-21.203-33.28-33.186 33.28-33.186z"/><path d="m428.975 311.147-33.314 33.219-33.313-33.219-21.197 21.203 33.28 33.186-33.28 33.185 21.197 21.203 33.313-33.219 33.314 33.219 21.196-21.203-33.28-33.185 33.28-33.186z"/></g></svg>