<?xml version="1.0" encoding="utf-8"?>
<!-- Generator: Adobe Illustrator 22.0.1, SVG Export Plug-In . SVG Version: 6.00 Build 0)  -->
<svg version="1.1" id="Layer_1" xmlns="http://www.w3.org/2000/svg" xmlns:xlink="http://www.w3.org/1999/xlink" x="0px" y="0px"
	 viewBox="0 0 512 512" style="enable-background:new 0 0 512 512;" xml:space="preserve">
<style type="text/css">
	.st0{fill:#FFFFFF;}
</style>
<g transform="translate(1 1)">
	<g>
		<g>
			<path class="st0" d="M485.4-1H109.9C95.4-1,84.3,10.1,84.3,24.6v247.5H7.5c-5.1,0-8.5,3.4-8.5,8.5v179.2C-1,488,22,511,50.2,511
				h409.6c28.2,0,51.2-23,51.2-51.2V24.6C511,10.1,499.9-1,485.4-1z M16.1,459.8V289.1h68.3v170.7c0,18.8-15.4,34.1-34.1,34.1
				S16.1,478.6,16.1,459.8z M493.9,459.8c0,18.8-15.4,34.1-34.1,34.1H88.6c1.6-2,3.2-4.1,4.5-6.4c4.8-7.4,7.8-16,8.2-25.4
				c0-0.8,0.1-1.6,0.1-2.4V280.6v-256c0-5.1,3.4-8.5,8.5-8.5h375.5c5.1,0,8.5,3.4,8.5,8.5L493.9,459.8L493.9,459.8z"/>
			<path class="st0" d="M459.8,84.3H135.5c-5.1,0-8.5,3.4-8.5,8.5v128c0,5.1,3.4,8.5,8.5,8.5h324.3c5.1,0,8.5-3.4,8.5-8.5v-128
				C468.3,87.7,464.9,84.3,459.8,84.3z M451.3,212.3H144.1V101.4h307.2V212.3z"/>
			<path class="st0" d="M459.8,41.7H135.5c-5.1,0-8.5,3.4-8.5,8.5s3.4,8.5,8.5,8.5h324.3c5.1,0,8.5-3.4,8.5-8.5
				S464.9,41.7,459.8,41.7z"/>
			<path class="st0" d="M135.5,331.8h51.2c5.1,0,8.5-3.4,8.5-8.5v-51.2c0-5.1-3.4-8.5-8.5-8.5h-51.2c-5.1,0-8.5,3.4-8.5,8.5v51.2
				C127,328.4,130.4,331.8,135.5,331.8z M144.1,280.6h34.1v34.1h-34.1V280.6z"/>
			<path class="st0" d="M135.5,425.7h51.2c5.1,0,8.5-3.4,8.5-8.5v-51.2c0-5.1-3.4-8.5-8.5-8.5h-51.2c-5.1,0-8.5,3.4-8.5,8.5v51.2
				C127,422.3,130.4,425.7,135.5,425.7z M144.1,374.5h34.1v34.1h-34.1V374.5z"/>
			<path class="st0" d="M459.8,263.5H229.4c-5.1,0-8.5,3.4-8.5,8.5s3.4,8.5,8.5,8.5h230.4c5.1,0,8.5-3.4,8.5-8.5
				C468.3,266.9,464.9,263.5,459.8,263.5z"/>
			<path class="st0" d="M229.4,323.3h85.3c5.1,0,8.5-3.4,8.5-8.5s-3.4-8.5-8.5-8.5h-85.3c-5.1,0-8.5,3.4-8.5,8.5
				S224.3,323.3,229.4,323.3z"/>
			<path class="st0" d="M459.8,357.4H229.4c-5.1,0-8.5,3.4-8.5,8.5s3.4,8.5,8.5,8.5h230.4c5.1,0,8.5-3.4,8.5-8.5
				S464.9,357.4,459.8,357.4z"/>
			<path class="st0" d="M314.7,417.1c5.1,0,8.5-3.4,8.5-8.5s-3.4-8.5-8.5-8.5h-85.3c-5.1,0-8.5,3.4-8.5,8.5s3.4,8.5,8.5,8.5H314.7z"
				/>
			<path class="st0" d="M459.8,451.3H135.5c-5.1,0-8.5,3.4-8.5,8.5s3.4,8.5,8.5,8.5h324.3c5.1,0,8.5-3.4,8.5-8.5
				C468.3,454.7,464.9,451.3,459.8,451.3z"/>
		</g>
	</g>
</g>
</svg>
